<svg xmlns="http://www.w3.org/2000/svg" width="40" height="40" viewBox="55 0 40 40"><path d="M75 40a19.933 19.933 0 0 1-14.142-5.858A19.933 19.933 0 0 1 55 20a19.933 19.933 0 0 1 5.858-14.142A19.933 19.933 0 0 1 75 0a19.933 19.933 0 0 1 14.142 5.858A19.933 19.933 0 0 1 95 20a19.933 19.933 0 0 1-5.858 14.142A19.933 19.933 0 0 1 75 40ZM65 27.967C67.096 29.317 69.44 30 71.966 30c2.641 0 5.014-.684 7.053-2.033 1.867-1.206 3.337-2.852 4.37-4.89 1.005-1.922 1.514-3.946 1.514-6.015 0-.257-.014-.447-.043-.562.89-.66 1.662-1.46 2.293-2.38a9.781 9.781 0 0 1-2.595.735c.976-.602 1.646-1.446 1.99-2.509a9.27 9.27 0 0 1-2.9 1.082 5.15 5.15 0 0 0-1.491-1.039 4.362 4.362 0 0 0-1.84-.39 4.474 4.474 0 0 0-3.894 2.272 4.535 4.535 0 0 0-.606 2.272c0 .345.03.695.086 1.038a12.638 12.638 0 0 1-5.213-1.384 12.596 12.596 0 0 1-4.132-3.375 4.366 4.366 0 0 0-.65 2.272c0 .79.19 1.525.563 2.185a5.06 5.06 0 0 0 1.471 1.644 4.3 4.3 0 0 1-2.033-.605v.086c0 1.063.35 2.023 1.038 2.856a4.601 4.601 0 0 0 2.596 1.6c-.405.088-.813.13-1.211.13-.259 0-.535-.014-.822-.043.287.89.817 1.64 1.579 2.229.76.588 1.656.886 2.66.886-1.665 1.293-3.572 1.948-5.667 1.948-.402 0-.765-.015-1.081-.043Z" fill="#fff" fill-rule="evenodd" data-name="Combined Shape"/></svg>