<svg xmlns="http://www.w3.org/2000/svg" width="40" height="40" viewBox="110 0 40 40"><path d="M130 40a19.933 19.933 0 0 1-14.142-5.858A19.933 19.933 0 0 1 110 20a19.933 19.933 0 0 1 5.858-14.142A19.933 19.933 0 0 1 130 0a19.933 19.933 0 0 1 14.142 5.858A19.933 19.933 0 0 1 150 20a19.933 19.933 0 0 1-5.858 14.142A19.933 19.933 0 0 1 130 40Zm0-29c-1.73 0-2.995.02-3.757.06-.76.04-1.428.155-1.989.341a4.724 4.724 0 0 0-1.748 1.105 4.724 4.724 0 0 0-1.105 1.748c-.186.56-.3 1.23-.34 1.99-.04.761-.061 2.025-.061 3.756 0 1.73.02 2.994.06 3.756.04.76.155 1.429.341 1.99.24.664.611 1.252 1.105 1.747a4.305 4.305 0 0 0 1.748 1.065c.557.212 1.226.34 1.99.381.744.04 2.008.06 3.756.06 1.747 0 3.011-.02 3.756-.06.763-.04 1.432-.155 1.99-.34a4.704 4.704 0 0 0 2.852-2.854c.186-.557.301-1.226.341-1.989.04-.745.06-2.009.06-3.756 0-1.736-.013-2.993-.04-3.737-.052-.77-.173-1.447-.36-2.009a4.714 4.714 0 0 0-2.854-2.853c-.56-.186-1.23-.3-1.989-.34-.762-.04-2.026-.061-3.756-.061Zm.642 16.392h-1.285c-1.055 0-1.893-.013-2.491-.04-.988-.053-1.719-.162-2.17-.321-.799-.32-1.38-.9-1.728-1.728-.159-.452-.267-1.182-.321-2.17a60.467 60.467 0 0 1-.04-2.49v-1.286c0-1.055.014-1.893.04-2.491.054-1.014.162-1.744.321-2.17a2.926 2.926 0 0 1 1.728-1.728c.453-.16 1.183-.267 2.17-.321.598-.026 1.436-.04 2.491-.04h1.285c1.056 0 1.895.014 2.492.04 1.014.054 1.744.162 2.17.321a2.918 2.918 0 0 1 1.727 1.728c.16.425.268 1.155.322 2.17.026.57.04 1.408.04 2.491v1.285a60.47 60.47 0 0 1-.04 2.492c-.054.989-.163 1.719-.322 2.17-.32.8-.901 1.38-1.728 1.727-.423.16-1.153.268-2.17.322-.57.026-1.407.04-2.49.04ZM130 15.38c-.826 0-1.603.21-2.31.623a4.653 4.653 0 0 0-1.688 1.687 4.523 4.523 0 0 0-.623 2.31c0 .826.21 1.603.623 2.311.412.706.98 1.274 1.687 1.688a4.523 4.523 0 0 0 2.31.622c.826 0 1.603-.21 2.311-.622a4.642 4.642 0 0 0 1.688-1.688 4.523 4.523 0 0 0 .622-2.31c0-.826-.21-1.603-.622-2.31a4.647 4.647 0 0 0-1.688-1.688 4.523 4.523 0 0 0-2.31-.623Zm4.821-1.286a1.05 1.05 0 0 0-.763.322c-.213.213-.321.47-.321.764 0 .293.108.55.32.763.214.213.47.321.764.321a.982.982 0 0 0 .743-.321c.2-.213.315-.47.342-.763 0-.294-.108-.55-.322-.764a1.048 1.048 0 0 0-.763-.322ZM130 23.013a2.915 2.915 0 0 1-2.13-.884 2.915 2.915 0 0 1-.883-2.13c0-.825.297-1.541.883-2.129a2.918 2.918 0 0 1 2.13-.883c.826 0 1.543.297 2.13.883.586.587.883 1.303.883 2.13s-.297 1.544-.884 2.13a2.912 2.912 0 0 1-2.13.883Z" fill="#fff" fill-rule="evenodd" data-name="Combined Shape"/></svg>