<svg xmlns="http://www.w3.org/2000/svg" width="40" height="40"><path d="M20 40a19.933 19.933 0 0 1-14.142-5.858A19.933 19.933 0 0 1 0 20 19.933 19.933 0 0 1 5.858 5.858 19.933 19.933 0 0 1 20 0a19.933 19.933 0 0 1 14.142 5.858A19.933 19.933 0 0 1 40 20a19.933 19.933 0 0 1-5.858 14.142A19.933 19.933 0 0 1 20 40Zm-5-22.25v3.2h2.707V29h3.304v-8.05h2.567l.422-3.2h-2.989v-2.215c0-.513.095-.892.282-1.125.233-.28.67-.421 1.3-.421h1.688V11.14c-.627-.093-1.456-.14-2.46-.14-1.237 0-2.243.373-2.99 1.108-.746.735-1.124 1.781-1.124 3.111v2.53H15Z" fill="#fff" fill-rule="evenodd" data-name="Combined Shape"/></svg>