<svg xmlns="http://www.w3.org/2000/svg" width="83.506" height="32.687" viewBox="609.423 8.465 83.506 32.687"><g data-name="Group 40"><g data-name="Group 3"><g data-name="Group 3" transform="translate(640.14 8.26)" clip-path="url(&quot;#a&quot;)"><path d="M26.119 6.76v19.485c0 3.759-.367 4.814 2.017 5.455v.78H18.6v-.78c1.238-.458 1.1-1.696 1.1-5.455v-8.757H8.606v8.757c0 3.759-.183 4.997 1.1 5.455v.78H.126v-.78c2.429-.641 2.062-1.696 2.062-5.455V6.76c0-3.53.138-5.364-2.062-5.776v-.78h9.58v.78c-1.283.412-1.1 2.246-1.1 5.776v9.81H19.7v-9.81c0-3.53.184-5.364-1.1-5.776v-.78h9.536v.78c-2.155.412-2.017 2.246-2.017 5.776" fill="#fff" fill-rule="evenodd" data-name="Fill 1"/></g></g><path d="M692.929 39.96v.78h-7.244c-4.86 0-5.96-1.33-10.773-8.298-2.659-3.76-4.63-6.373-4.63-6.373l6.326-7.655s7.885-8.986-.275-9.17v-.779h15.129v.78c-3.071 0-6.28.091-16.183 12.79 10.727 14.349 11.186 14.945 11.186 14.945 2.246 2.98 5.226 2.98 6.464 2.98" fill="#fff" fill-rule="evenodd" data-name="Fill 4"/><path d="M617.079 29.193c0-.028-.086-2.33-.113-3.088a.248.248 0 0 0-.25-.239.248.248 0 0 0-.25.234c-.04.753-.167 3.066-.167 3.097-.012.837-.29 10.763-6.876 10.763v.78h13.89v-.78c-6.068 0-6.231-9.955-6.234-10.767" fill="#fff" fill-rule="evenodd" data-name="Fill 6"/><g data-name="Group 10"><g data-name="Group 10" transform="translate(610.837 8.26)" clip-path="url(&quot;#b&quot;)"><path d="M26.872 14.982a.212.212 0 0 0-.278.114l-1.562 3.04c-1.355 2.637-2.773 3.75-4.335.715v.001L11.834.205H.282v.78c1.146.091 3.438.091 5.18 3.163l13.615 28.744h.78l.732-1.825 6.4-15.813a.212.212 0 0 0-.117-.272" fill="#fff" fill-rule="evenodd" data-name="Fill 8"/></g></g></g><defs><clipPath id="a"><path d="M0 0h28.01v32.274H0V0Z" data-name="Clip 2" transform="translate(.126 .205)"/></clipPath><clipPath id="b"><path d="M0 0h26.72v32.687H0V0Z" data-name="Clip 9" transform="translate(.282 .205)"/></clipPath></defs></svg>